<?xml version="1.0" standalone="no"?>
<!DOCTYPE svg PUBLIC "-//W3C//DTD SVG 20010904//EN" "http://www.w3.org/TR/2001/REC-SVG-20010904/DTD/svg10.dtd">
<!-- Created using Krita: https://krita.org -->
<svg xmlns="http://www.w3.org/2000/svg" 
    xmlns:xlink="http://www.w3.org/1999/xlink"
    xmlns:krita="http://krita.org/namespaces/svg/krita"
    xmlns:sodipodi="http://sodipodi.sourceforge.net/DTD/sodipodi-0.dtd"
    width="480pt"
    height="480pt"
    viewBox="0 0 480 480">
<defs>
  <linearGradient id="gradient0" gradientUnits="objectBoundingBox" x1="0.494852983328276" y1="0.885093019785529" x2="0.498052550301064" y2="-0.114524778672475" spreadMethod="pad">
   <stop stop-color="#0480bc" offset="0" stop-opacity="1"/>
   <stop stop-color="#52b3e1" offset="1" stop-opacity="1"/>
  </linearGradient>
  <linearGradient id="gradient1" gradientUnits="objectBoundingBox" x1="0.194543965205377" y1="0.566981334161953" x2="0.644869776977421" y2="0.23994070126452" spreadMethod="pad">
   <stop stop-color="#0480bc" offset="0" stop-opacity="1"/>
   <stop stop-color="#52b3e1" offset="1" stop-opacity="1"/>
  </linearGradient>
  <linearGradient id="gradient2" gradientUnits="objectBoundingBox" x1="0.0508077753126575" y1="0.53411989284907" x2="0.865439952621717" y2="0.429393672156539" spreadMethod="pad">
   <stop stop-color="#0480bc" offset="0" stop-opacity="1"/>
   <stop stop-color="#52b3e1" offset="1" stop-opacity="1"/>
  </linearGradient>
  <linearGradient id="gradient3" gradientUnits="objectBoundingBox" x1="0.762380714305974" y1="0.0209585257696672" x2="0.0232549408806113" y2="0.991813661893309" spreadMethod="pad">
   <stop stop-color="#0480bc" offset="0" stop-opacity="1"/>
   <stop stop-color="#52b3e1" offset="1" stop-opacity="1"/>
  </linearGradient>
  <linearGradient id="gradient4" gradientUnits="objectBoundingBox" x1="0.312516805699035" y1="0.861737548085157" x2="0.741596696817624" y2="0.164029829976655" spreadMethod="pad">
   <stop stop-color="#0480bc" offset="0" stop-opacity="1"/>
   <stop stop-color="#52b3e1" offset="1" stop-opacity="1"/>
  </linearGradient>
  <linearGradient id="gradient5" gradientUnits="objectBoundingBox" x1="0.673926137695732" y1="0.45573937896822" x2="0.212573820601721" y2="0.713616516878898" spreadMethod="pad">
   <stop stop-color="#0480bc" offset="0" stop-opacity="1"/>
   <stop stop-color="#52b3e1" offset="1" stop-opacity="1"/>
  </linearGradient>
  <linearGradient id="gradient6" gradientUnits="objectBoundingBox" x1="0.501291231703343" y1="0.015146491177858" x2="0.490715486468183" y2="1.00907373064246" spreadMethod="pad">
   <stop stop-color="#0480bc" offset="0" stop-opacity="1"/>
   <stop stop-color="#52b3e1" offset="1" stop-opacity="1"/>
  </linearGradient>
  <linearGradient id="gradient7" gradientUnits="objectBoundingBox" x1="0.161206570741307" y1="0.512679444475511" x2="0.882791826414334" y2="0.209594269850178" spreadMethod="pad">
   <stop stop-color="#0480bc" offset="0" stop-opacity="1"/>
   <stop stop-color="#52b3e1" offset="1" stop-opacity="1"/>
  </linearGradient>
  <linearGradient id="gradient8" gradientUnits="objectBoundingBox" x1="0.042490955369479" y1="0.551695386876094" x2="1.03331639166794" y2="0.573800345402824" spreadMethod="pad">
   <stop stop-color="#0480bc" offset="0" stop-opacity="1"/>
   <stop stop-color="#52b3e1" offset="1" stop-opacity="1"/>
  </linearGradient>
  <linearGradient id="gradient9" gradientUnits="objectBoundingBox" x1="0.787174376566828" y1="0.0229914832421141" x2="0.00472969931599376" y2="0.997356428712717" spreadMethod="pad">
   <stop stop-color="#0480bc" offset="0" stop-opacity="1"/>
   <stop stop-color="#52b3e1" offset="1" stop-opacity="1"/>
  </linearGradient>
  <linearGradient id="gradient10" gradientUnits="objectBoundingBox" x1="0.3074602564947" y1="0.8490837492732" x2="0.719345768973118" y2="0.168581700903902" spreadMethod="pad">
   <stop stop-color="#0480bc" offset="0" stop-opacity="1"/>
   <stop stop-color="#52b3e1" offset="1" stop-opacity="1"/>
  </linearGradient>
  <linearGradient id="gradient11" gradientUnits="objectBoundingBox" x1="0.634386394170756" y1="0.545125101079024" x2="0.164532442620231" y2="0.962898003966447" spreadMethod="pad">
   <stop stop-color="#0480bc" offset="0" stop-opacity="1"/>
   <stop stop-color="#52b3e1" offset="1" stop-opacity="1"/>
  </linearGradient>
  <linearGradient id="gradient12" gradientUnits="objectBoundingBox" x1="0" y1="0" x2="1" y2="1" spreadMethod="pad">
   <stop stop-color="#0480bc" offset="0" stop-opacity="1"/>
   <stop stop-color="#52b3e1" offset="1" stop-opacity="1"/>
  </linearGradient>
  <linearGradient id="gradient13" gradientUnits="objectBoundingBox" x1="0.85060025420286" y1="0.768031897773302" x2="-0.0641512598808394" y2="0.263789905759802" spreadMethod="pad">
   <stop stop-color="#0480bc" offset="0" stop-opacity="1"/>
   <stop stop-color="#52b3e1" offset="1" stop-opacity="1"/>
  </linearGradient>
 </defs>
<path id="shape0" transform="translate(185.832479418281, 89.9778809253259)" fill="url(#gradient0)" fill-rule="evenodd" stroke="#209fdc" stroke-width="0.48" stroke-linecap="square" stroke-linejoin="bevel" d="M52.4401 127.88C67.8646 128.35 103.904 134.639 100.205 144.331C119.54 142.428 74.0266 12.5993 52.4401 0C30.8536 12.5993 -14.6599 142.433 4.67484 144.335C0.976041 134.644 37.0156 128.35 52.4401 127.88Z" sodipodi:nodetypes="ccccc"/><path id="shape1" transform="translate(261.965494218477, 122.24582226902)" fill="url(#gradient1)" fill-rule="evenodd" stroke="#2ca4dc" stroke-width="0.48" stroke-linecap="square" stroke-linejoin="bevel" d="M0 0C13.4483 22.388 23.886 57.8216 24.7472 69.2898C25.8927 66.3551 25.3603 61.9044 28.6391 61.1569C34.8474 60.9248 46.9726 57.9114 48.49 51.045C48.6768 41.1296 3.4254 0.631275 0 0Z" sodipodi:nodetypes="ccccc"/><path id="shape2" transform="translate(361.387335832129, 216.669418902147)" fill="url(#gradient2)" fill-rule="evenodd" stroke="#2ca4dc" stroke-width="0.48" stroke-linecap="square" stroke-linejoin="bevel" d="M0 62.4583C0.531709 61.454 4.86256 55.5874 12.9925 44.8585C21.8645 43.8441 27.5224 38.7965 29.9663 29.7157C31.8723 20.8794 22.1256 7.01068 9.23322 15.1291C2.18402 11.6782 14.5427 -3.51085 28.5532 0.746534C44.5194 7.38068 44.9368 28.3112 43.979 32.1238C43.0212 35.9364 41.0073 69.0566 0 62.4583Z" sodipodi:nodetypes="ccccczc"/><path id="shape3" transform="translate(341.835324008762, 230.946996609244)" fill="url(#gradient3)" fill-rule="evenodd" stroke="#2ca4dc" stroke-width="0.48" stroke-linecap="square" stroke-linejoin="bevel" d="M0.283396 66.9345C3.61397 70.5378 39.9109 13.7869 45.033 5.25578C44.3398 1.09117 34.0766 -3.02712 28.1256 3.14052C23.9954 11.9037 -3.04718 63.3313 0.283396 66.9345Z" sodipodi:nodetypes="cccc"/><path id="shape4" transform="translate(379.849952894831, 192.174385984936)" fill="url(#gradient4)" fill-rule="evenodd" stroke="#2ca4dc" stroke-width="0.48" stroke-linecap="square" stroke-linejoin="bevel" d="M0 23.5637C2.89132 23.0906 8.4633 20.1811 16.6819 27.4958C19.3627 25.0744 26.4961 11.052 26.716 8.53021C25.7412 6.67792 15.3074 -0.0190956 12.9075 4.09282e-05C10.1015 1.76247 0.519411 20.9795 0 23.5637Z" sodipodi:nodetypes="ccccc"/><path id="shape5" transform="translate(392.633260920376, 176.515483885356)" fill="#209fdc" fill-rule="evenodd" stroke="#2ca4dc" stroke-width="0.48" stroke-linecap="square" stroke-linejoin="bevel" d="M0 11.3698C1.34029 13.9092 12.1261 19.6134 16.9441 21.855C19.6811 18.9531 23.105 11.9056 23.0775 8.45569C21.8025 6.5758 9.23546 -0.524225 7.34982 0.0308277C5.46419 0.58588 1.49862 7.42772 0 11.3698Z" sodipodi:nodetypes="ccccc"/><path id="shape6" transform="translate(399.702132668749, 129.245984665669)" fill="url(#gradient5)" fill-rule="evenodd" stroke="#2ca4dc" stroke-width="0.48" stroke-linecap="square" stroke-linejoin="bevel" d="M36.505 0C31.3238 9.90163 23.197 16.6066 12.1246 20.115C-3.0268 27.5261 -2.00053 43.3584 4.50366 46.3666C11.0079 49.3749 13.81 50.8826 16.2428 51.2232C19.487 51.7373 56.0181 42.9558 36.505 0Z" sodipodi:nodetypes="cczcc"/><path id="shape11" transform="matrix(-1 0 0 1 426.578120427988 220.703582627419)" fill="url(#gradient6)" stroke="#209fdc" stroke-width="0.48" stroke-linecap="square" stroke-linejoin="bevel" d="M189.019 95.1366C191.808 105.733 218.667 141.684 250.867 146.334C296.276 151.953 307.84 121.435 327.354 130.151C333.053 137.184 321.667 138.839 316.804 145.721C325.942 147.804 349.227 134.048 333.505 119.539C315.865 105.287 288.804 126.755 267.564 126.813C235.233 125.644 213.136 99.8682 201.273 49.486C204.457 60.0478 210.725 74.6722 220.978 84.9434C231.653 95.637 238.945 100.901 249.872 106.321C259.84 111.265 280.851 112.091 291.239 109.454C313.966 104.193 337.717 85.2124 357.068 95.9404C360.859 97.878 368.876 103.977 368.708 110.87C368.233 120.694 358.98 121.343 355.417 120.916C348.871 120.131 347.877 116.179 350.49 112.917C348.194 111.016 343.782 114.413 343.816 118.373C342.326 133.866 370.606 136.149 376.534 113.238C380.512 93.9437 358.403 76.3085 338.968 77.0116C315.685 76.727 276.876 103.124 258.614 79.2159C264.895 81.8941 273.204 83.1926 278.917 79.2197C290.713 70.9657 304.118 40.7141 306.973 34.1836C287.987 31.1628 273.796 68.5581 252.273 63.5186C241.105 62.7122 228.608 49.9466 228.128 39.2403C237.852 28.9283 233.987 17.9354 231.363 9.07711C224.511 4.15443 193.613 -0.771226 188.188 0.101041C182.908 -0.708208 152.492 4.14969 145.64 9.07237C143.016 17.9307 139.151 28.9236 148.875 39.2356C148.395 49.9419 135.897 62.7075 124.73 63.5138C103.207 68.5534 89.0154 31.158 70.0294 34.1789C72.8839 40.7093 86.2889 70.961 98.0858 79.215C103.798 83.1879 112.108 81.8894 118.388 79.2112C100.127 103.119 61.3171 76.7223 38.0339 77.0069C18.5991 76.3038 -3.50962 93.939 0.468642 113.233C6.39663 136.144 34.6768 133.861 33.1867 118.368C33.2199 114.408 28.8083 111.011 26.5122 112.912C29.125 116.174 28.1318 120.125 21.585 120.91C18.0226 121.338 8.76957 120.689 8.29461 110.865C8.12629 103.972 16.1435 97.8733 19.9344 95.9357C39.2851 85.2077 63.0367 104.188 85.7634 109.449C96.1516 112.086 117.163 111.26 127.131 106.315C138.058 100.896 145.349 95.6323 156.024 84.9387C166.277 74.6675 172.546 60.0431 175.73 49.4812C163.867 99.8635 141.77 125.639 109.439 126.808C88.1983 126.75 61.1375 105.282 43.4973 119.534C27.775 134.043 51.0604 147.799 60.1982 145.715C55.3358 138.834 43.9493 137.179 49.6485 130.146C69.1623 121.43 80.7266 151.948 126.135 146.329C158.336 141.679 186.23 105.734 189.019 95.1366Z" sodipodi:nodetypes="cccccccsscccccccccccccccccccccccccccccssccccccc"/><path id="shape21" transform="matrix(-1 0 0 1 214.152278287991 122.831410447614)" fill="url(#gradient7)" stroke="#2ca4dc" stroke-width="0.48" stroke-linecap="square" stroke-linejoin="bevel" d="M0 0C13.4483 22.388 23.886 57.8216 24.7472 69.2898C25.8927 66.3551 25.3603 61.9044 28.6391 61.1569C34.8474 60.9248 46.9726 57.9114 48.49 51.045C48.6768 41.1296 3.4254 0.631275 0 0Z" sodipodi:nodetypes="ccccc"/><path id="shape31" transform="matrix(-1 0 0 1 114.766232112755 216.67416365062)" fill="url(#gradient8)" stroke="#2ca4dc" stroke-width="0.48" stroke-linecap="square" stroke-linejoin="bevel" d="M0 62.4583C0.531709 61.454 4.86256 55.5874 12.9925 44.8585C21.8645 43.8441 27.5224 38.7965 29.9663 29.7157C31.8723 20.8794 22.1256 7.01068 9.23322 15.1291C2.18402 11.6782 14.5427 -3.51085 28.5532 0.746533C44.5194 7.38068 44.9368 28.3112 43.979 32.1238C43.0212 35.9364 41.0073 69.0566 0 62.4583Z" sodipodi:nodetypes="ccccczc"/><path id="shape41" transform="matrix(-1 0 0 1 134.08494930811 231.069822318347)" fill="url(#gradient9)" stroke="#2ca4dc" stroke-width="0.48" stroke-linecap="square" stroke-linejoin="bevel" d="M0.283396 66.9345C3.61397 70.5378 39.9109 13.7869 45.033 5.25578C44.3398 1.09117 34.0766 -3.02712 28.1256 3.14052C23.9954 11.9037 -3.04718 63.3313 0.283396 66.9345Z" sodipodi:nodetypes="cccc"/><path id="shape51" transform="matrix(-1 0 0 1 96.3036150500529 192.179129800134)" fill="url(#gradient10)" stroke="#2ca4dc" stroke-width="0.48" stroke-linecap="square" stroke-linejoin="bevel" d="M0 23.5637C2.89132 23.0906 8.4633 20.1811 16.6819 27.4958C19.3627 25.0744 26.4961 11.052 26.716 8.53021C25.7412 6.67792 15.3074 -0.0190956 12.9075 4.09282e-05C10.1015 1.76247 0.519411 20.9795 0 23.5637Z" sodipodi:nodetypes="ccccc"/><path id="shape61" transform="matrix(-1 0 0 1 83.520307024508 176.520227765683)" fill="#209fdc" stroke="#2ca4dc" stroke-width="0.48" stroke-linecap="square" stroke-linejoin="bevel" d="M0 11.3698C1.34029 13.9092 12.1261 19.6134 16.9441 21.855C19.6811 18.9531 23.105 11.9056 23.0775 8.45569C21.8025 6.5758 9.23546 -0.524225 7.34982 0.0308276C5.46419 0.58588 1.49862 7.42772 0 11.3698Z" sodipodi:nodetypes="ccccc"/><path id="shape7" transform="matrix(-1 0 0 1 76.4514339386713 129.250728480859)" fill="url(#gradient11)" stroke="#2ca4dc" stroke-width="0.48" stroke-linecap="square" stroke-linejoin="bevel" d="M36.505 0C31.3238 9.90163 23.197 16.6066 12.1246 20.115C-3.0268 27.5261 -2.00053 43.3584 4.50366 46.3666C11.0079 49.3749 13.81 50.8826 16.2428 51.2232C19.487 51.7373 56.0181 42.9558 36.505 0Z" sodipodi:nodetypes="cczcc"/><path id="shape8" transform="translate(258.009003121212, 233.76603716055)" fill="#ffffff" fill-rule="evenodd" stroke="#ffffff" stroke-width="0.24" stroke-linecap="square" stroke-linejoin="bevel" d="M10.5768 0.07981C16.4675 -0.575951 19.1687 2.87439 19.9474 8.03578C20.9191 14.477 14.5527 24.4558 8.15778 24.0399C-4.84071 23.1945 -1.01345 2.60231 10.5768 0.07981Z" sodipodi:nodetypes="ccsc"/><path id="shape01" transform="matrix(1 0 0 -1 200.747961961254 257.613887947492)" fill="#ffffff" fill-rule="evenodd" stroke="#ffffff" stroke-width="0.24" stroke-linecap="square" stroke-linejoin="bevel" d="M10.5768 0.0798099C16.4675 -0.575951 19.1687 2.87439 19.9474 8.03578C20.9191 14.477 14.5527 24.4558 8.15778 24.0399C-4.84071 23.1945 -1.01345 2.60231 10.5768 0.0798099Z" sodipodi:nodetypes="ccsc"/><path id="shape02" transform="matrix(0.652207572465976 0.137556917229784 -0.18007452464835 0.853799074223768 265.709690870626 235.039054019421)" fill="url(#gradient12)" fill-rule="evenodd" stroke="#209fdc" stroke-width="0.24" stroke-linecap="square" stroke-linejoin="bevel" d="M10.5768 0.0798099C16.4675 -0.575951 19.1687 2.87439 19.9474 8.03578C20.9191 14.477 14.5527 24.4558 8.15778 24.0399C-4.84071 23.1945 -1.01345 2.60231 10.5768 0.0798099Z" sodipodi:nodetypes="ccsc"/><path id="shape03" transform="matrix(0.688900633977503 -0.117446739536466 -0.146645704930047 -0.860171338047405 203.879038073488 257.668882506638)" fill="url(#gradient13)" fill-rule="evenodd" stroke="#209fdc" stroke-width="0.24" stroke-linecap="square" stroke-linejoin="bevel" d="M10.5768 0.0798099C16.4675 -0.575951 19.1687 2.87439 19.9474 8.03578C20.9191 14.477 14.5527 24.4558 8.15778 24.0399C-4.84071 23.1945 -1.01345 2.60231 10.5768 0.0798099Z" sodipodi:nodetypes="ccsc"/>
</svg>
